# Blender v2.79 (sub 0) OBJ File: 'Nature block.blend'
# www.blender.org
mtllib naturespawn.mtl
o base
v 0.753787 1.478019 0.427283
v 0.753787 1.478020 0.582138
v 0.455170 1.122142 0.582138
v 0.455170 1.122142 0.427283
v 0.457222 1.726866 0.427283
v 0.457222 1.726866 0.582138
v 0.158606 1.370989 0.582138
v 0.158606 1.370989 0.427283
v 0.579594 1.270424 0.427283
v 0.579594 1.270424 0.582138
v 0.283030 1.519271 0.427283
v 0.283029 1.519271 0.582138
v 0.573796 1.022604 0.582138
v 0.573796 1.022604 0.427283
v 0.698220 1.170886 0.427283
v 0.698219 1.170886 0.582138
v 0.745860 0.974523 0.746671
v 0.261939 0.974523 0.746671
v 0.745860 0.974523 0.262750
v 0.261939 0.974523 0.262750
v 0.261939 0.853543 0.746671
v 0.745860 0.853543 0.262750
v 0.261939 0.853543 0.262750
v 0.745860 0.853543 0.746671
v 0.891037 0.853543 0.746671
v 0.891037 0.732563 0.746671
v 0.116763 0.732563 0.746671
v 0.116763 0.732563 0.262750
v 0.891037 0.732563 0.262750
v 0.116763 0.853543 0.746671
v 0.116763 0.853543 0.262750
v 0.891037 0.853543 0.262750
v 0.116763 0.974523 0.746671
v 0.116763 0.974523 0.262750
v 0.891037 0.974523 0.262750
v 0.891037 0.974523 0.746671
v 0.000622 0.853543 0.746671
v 0.000622 0.974523 0.746671
v 0.000622 0.974523 0.262750
v 0.000622 0.853543 0.262750
v 1.007178 0.853543 0.262750
v 1.007178 0.974523 0.262750
v 1.007178 0.974523 0.746671
v 1.007178 0.853543 0.746671
v 0.261939 0.974523 0.891847
v 0.745860 0.974523 0.891847
v 0.745860 0.853543 0.891847
v 0.745860 0.732563 0.891847
v 0.261939 0.732563 0.891847
v 0.261939 0.853543 0.891847
v 0.261939 0.853543 0.117573
v 0.261939 0.974523 0.117573
v 0.745860 0.974523 0.117573
v 0.261939 0.732563 0.117573
v 0.745860 0.732563 0.117573
v 0.745860 0.853543 0.117573
v 0.261939 0.974523 1.007988
v 0.745860 0.974523 1.007988
v 0.261939 0.853543 1.007988
v 0.261939 0.853543 0.001432
v 0.261939 0.974523 0.001432
v 0.745860 0.974523 0.001432
v 0.745860 0.853543 0.001432
v 0.745860 0.853543 1.007988
v 0.745860 0.006681 0.746671
v 0.745860 0.248641 0.746671
v 0.261939 0.006681 0.746671
v 0.261939 0.006681 0.262750
v 0.261939 0.127661 0.746671
v 0.745860 0.127661 0.262750
v 0.261939 0.127661 0.262750
v 0.745860 0.006681 0.262750
v 0.745860 0.127661 0.746671
v 0.891037 0.248641 0.746671
v 0.116763 0.248641 0.746671
v 0.116763 0.248641 0.262750
v 0.891037 0.248641 0.262750
v 0.116763 0.127661 0.746671
v 0.116763 0.006681 0.746671
v 0.116763 0.006681 0.262750
v 0.116763 0.127661 0.262750
v 0.891037 0.127661 0.262750
v 0.891037 0.006681 0.262750
v 0.891037 0.006681 0.746671
v 0.891037 0.127661 0.746671
v 0.000622 0.127661 0.746671
v 0.000622 0.006681 0.746671
v 0.000622 0.006681 0.262750
v 0.000622 0.127661 0.262750
v 1.007178 0.127661 0.262750
v 1.007178 0.006681 0.262750
v 1.007178 0.006681 0.746671
v 1.007178 0.127661 0.746671
v 0.261939 0.006681 0.891847
v 0.745860 0.006681 0.891847
v 0.745860 0.127661 0.891847
v 0.745860 0.248641 0.891847
v 0.261939 0.248641 0.891847
v 0.261939 0.127661 0.891847
v 0.261939 0.127661 0.117573
v 0.261939 0.006681 0.117573
v 0.745860 0.006681 0.117573
v 0.261939 0.248641 0.117573
v 0.745860 0.248641 0.117573
v 0.745860 0.127661 0.117573
v 0.261939 0.006681 1.007988
v 0.745860 0.006681 1.007988
v 0.261939 0.127661 1.007988
v 0.261939 0.127661 0.001432
v 0.261939 0.006681 0.001432
v 0.745860 0.006681 0.001432
v 0.745860 0.127661 0.001432
v 0.745860 0.127661 1.007988
v 0.745860 0.732563 0.746671
v 0.261939 0.248641 0.746671
v 0.261939 0.732563 0.746671
v 0.745860 0.248641 0.262750
v 0.745860 0.732563 0.262750
v 0.261939 0.248641 0.262750
v 0.261939 0.732563 0.262750
vt 0.625000 0.718750
vt 0.750000 0.718750
vt 0.750000 0.625000
vt 0.625000 0.625000
vt 0.625000 0.937500
vt 0.500000 0.937500
vt 0.500000 1.000000
vt 0.625000 1.000000
vt 0.500000 0.625000
vt 0.500000 0.937500
vt 0.562500 0.937500
vt 0.562500 0.625000
vt 0.750000 0.718750
vt 0.750000 1.000000
vt 0.625000 1.000000
vt 0.625000 0.718750
vt 0.500000 1.000000
vt 0.500000 0.718750
vt 0.750000 1.000000
vt 0.625000 1.000000
vt 0.875000 1.000000
vt 0.875000 0.718750
vt 0.875000 0.718750
vt 0.875000 1.000000
vt 0.625000 0.937500
vt 0.500000 0.937500
vt 0.500000 1.000000
vt 0.625000 1.000000
vt 0.562500 0.625000
vt 0.562500 0.656250
vt 0.500000 0.656250
vt 0.500000 0.625000
vt 0.625000 0.625000
vt 0.625000 0.656250
vt 0.500000 0.656250
vt 0.500000 0.625000
vt 0.593750 0.656250
vt 0.531250 0.656250
vt 0.531250 0.625000
vt 0.593750 0.625000
vt 0.625000 0.625000
vt 0.750000 0.625000
vt 0.875000 0.625000
vt 0.937500 0.625000
vt 0.937500 0.750000
vt 0.875000 0.750000
vt 0.906250 0.750000
vt 0.937500 0.750000
vt 0.937500 0.781250
vt 0.906250 0.781250
vt 0.500000 0.625000
vt 0.500000 0.000000
vt 1.000000 0.000000
vt 1.000000 0.625000
vt 0.500000 0.937500
vt 0.500000 0.812500
vt 0.000000 0.812500
vt 0.000000 0.937500
vt 0.906250 0.781250
vt 0.937500 0.781250
vt 0.937500 0.750000
vt 0.906250 0.750000
vt 0.500000 0.937500
vt 0.500000 0.812500
vt 0.000000 0.812500
vt 0.000000 0.937500
vt 0.000000 0.625000
vt 0.500000 0.625000
vt 0.500000 0.812500
vt 0.000000 0.812500
vt 0.500000 0.625000
vt 0.000000 0.625000
vt 0.000000 0.937500
vt 0.000000 0.812500
vt 0.500000 0.812500
vt 0.500000 0.937500
vt 0.937500 0.625000
vt 1.000000 0.625000
vt 1.000000 0.750000
vt 0.937500 0.750000
vt 0.000000 0.812500
vt 0.000000 0.937500
vt 0.500000 0.937500
vt 0.500000 0.812500
vt 0.875000 0.625000
vt 0.875000 0.750000
vt 0.906250 0.781250
vt 0.937500 0.781250
vt 0.937500 0.750000
vt 0.906250 0.750000
vt 0.500000 0.937500
vt 0.500000 1.000000
vt 0.000000 1.000000
vt 0.000000 0.937500
vt 0.906250 0.750000
vt 0.937500 0.750000
vt 0.937500 0.781250
vt 0.906250 0.781250
vt 0.875000 0.750000
vt 0.937500 0.750000
vt 0.937500 0.625000
vt 0.875000 0.625000
vt 0.937500 0.781250
vt 0.937500 0.750000
vt 0.875000 0.625000
vt 0.937500 0.625000
vt 0.937500 0.750000
vt 0.875000 0.750000
vt 0.937500 0.750000
vt 0.937500 0.781250
vt 0.000000 0.937500
vt 0.000000 1.000000
vt 0.500000 1.000000
vt 0.500000 0.937500
vt 0.937500 0.750000
vt 0.937500 0.625000
vt 0.500000 0.625000
vt 0.000000 0.625000
vt 0.000000 0.812500
vt 0.500000 0.812500
vt 0.000000 0.625000
vt 0.500000 0.625000
vt 1.000000 0.750000
vt 1.000000 0.625000
vt 1.000000 0.625000
vt 1.000000 0.750000
vt 0.500000 0.937500
vt 0.000000 0.937500
vt 0.500000 0.812500
vt 0.500000 0.937500
vt 0.000000 0.937500
vt 0.000000 0.812500
vt 0.000000 0.937500
vt 0.500000 0.937500
vt 1.000000 0.750000
vt 1.000000 0.625000
vt 0.000000 0.625000
vt 0.500000 0.625000
vt 0.500000 0.812500
vt 0.000000 0.812500
vt 0.500000 0.625000
vt 0.000000 0.625000
vt 1.000000 0.625000
vt 1.000000 0.750000
vt 0.500000 0.812500
vt 0.500000 0.937500
vt 0.000000 0.937500
vt 0.000000 0.812500
vt 0.000000 0.812500
vt 0.000000 0.937500
vt 0.500000 0.937500
vt 0.500000 0.812500
vt 0.937500 0.750000
vt 0.937500 0.625000
vt 0.937500 0.625000
vt 0.937500 0.750000
vt 0.937500 0.750000
vt 0.937500 0.781250
vt 0.937500 0.750000
vt 0.937500 0.625000
vt 0.500000 0.937500
vt 0.500000 1.000000
vt 0.000000 1.000000
vt 0.000000 0.937500
vt 0.000000 1.000000
vt 0.500000 1.000000
vt 0.937500 0.781250
vt 0.937500 0.750000
vt 0.500000 0.625000
vt 0.000000 0.625000
vt 0.000000 0.812500
vt 0.500000 0.812500
vt 0.000000 0.625000
vt 0.500000 0.625000
vt 0.500000 0.812500
vt 0.000000 0.812500
vt 1.000000 0.625000
vt 1.000000 0.750000
vt 0.000000 0.937500
vt 0.500000 0.937500
vt 0.500000 0.937500
vt 0.000000 0.937500
vt 1.000000 0.750000
vt 1.000000 0.625000
vt 0.000000 0.937500
vt 0.500000 0.937500
vt 1.000000 0.750000
vt 1.000000 0.625000
vt 0.875000 0.625000
vt 0.875000 0.750000
vt 0.937500 0.750000
vt 0.937500 0.625000
vt 0.906250 0.750000
vt 0.906250 0.781250
vt 0.937500 0.781250
vt 0.937500 0.750000
vt 0.500000 0.000000
vt 1.000000 0.000000
vt 1.000000 0.625000
vt 0.500000 0.625000
vt 1.000000 0.000000
vt 0.500000 0.000000
vt 0.500000 0.625000
vt 1.000000 0.625000
vt 0.500000 0.937500
vt 0.000000 0.937500
vt 0.000000 0.812500
vt 0.500000 0.812500
vt 0.906250 0.781250
vt 0.906250 0.750000
vt 0.937500 0.750000
vt 0.937500 0.781250
vt 0.500000 0.937500
vt 0.000000 0.937500
vt 0.000000 0.812500
vt 0.500000 0.812500
vt 0.000000 0.625000
vt 0.000000 0.812500
vt 0.500000 0.812500
vt 0.500000 0.625000
vt 0.500000 0.625000
vt 0.000000 0.625000
vt 0.000000 0.937500
vt 0.500000 0.937500
vt 0.500000 0.812500
vt 0.000000 0.812500
vt 0.937500 0.625000
vt 0.937500 0.750000
vt 1.000000 0.750000
vt 1.000000 0.625000
vt 0.000000 0.812500
vt 0.500000 0.812500
vt 0.500000 0.937500
vt 0.000000 0.937500
vt 0.875000 0.625000
vt 0.875000 0.750000
vt 0.906250 0.781250
vt 0.906250 0.750000
vt 0.937500 0.750000
vt 0.937500 0.781250
vt 0.500000 0.937500
vt 0.000000 0.937500
vt 0.000000 1.000000
vt 0.500000 1.000000
vt 0.906250 0.750000
vt 0.906250 0.781250
vt 0.937500 0.781250
vt 0.937500 0.750000
vt 0.875000 0.750000
vt 0.875000 0.625000
vt 0.937500 0.625000
vt 0.937500 0.750000
vt 0.937500 0.750000
vt 0.937500 0.781250
vt 0.875000 0.625000
vt 0.875000 0.750000
vt 0.937500 0.750000
vt 0.937500 0.625000
vt 0.937500 0.781250
vt 0.937500 0.750000
vt 0.000000 0.937500
vt 0.500000 0.937500
vt 0.500000 1.000000
vt 0.000000 1.000000
vt 0.937500 0.625000
vt 0.937500 0.750000
vt 0.500000 0.625000
vt 0.500000 0.812500
vt 0.000000 0.812500
vt 0.000000 0.625000
vt 0.000000 0.625000
vt 0.500000 0.625000
vt 1.000000 0.625000
vt 1.000000 0.750000
vt 1.000000 0.750000
vt 1.000000 0.625000
vt 0.000000 0.937500
vt 0.500000 0.937500
vt 0.500000 0.812500
vt 0.000000 0.812500
vt 0.000000 0.937500
vt 0.500000 0.937500
vt 0.500000 0.937500
vt 0.000000 0.937500
vt 1.000000 0.625000
vt 1.000000 0.750000
vt 0.000000 0.625000
vt 0.000000 0.812500
vt 0.500000 0.812500
vt 0.500000 0.625000
vt 0.500000 0.625000
vt 0.000000 0.625000
vt 1.000000 0.750000
vt 1.000000 0.625000
vt 0.500000 0.812500
vt 0.000000 0.812500
vt 0.000000 0.937500
vt 0.500000 0.937500
vt 0.000000 0.812500
vt 0.500000 0.812500
vt 0.500000 0.937500
vt 0.000000 0.937500
vt 0.937500 0.625000
vt 0.937500 0.750000
vt 0.937500 0.750000
vt 0.937500 0.625000
vt 0.937500 0.781250
vt 0.937500 0.750000
vt 0.937500 0.625000
vt 0.937500 0.750000
vt 0.500000 0.937500
vt 0.000000 1.000000
vt 0.500000 1.000000
vt 0.000000 0.937500
vt 0.500000 1.000000
vt 0.000000 1.000000
vt 0.937500 0.750000
vt 0.937500 0.781250
vt 0.500000 0.625000
vt 0.500000 0.812500
vt 0.000000 0.812500
vt 0.000000 0.625000
vt 0.000000 0.625000
vt 0.000000 0.812500
vt 0.500000 0.812500
vt 0.500000 0.625000
vt 1.000000 0.750000
vt 1.000000 0.625000
vt 0.000000 0.937500
vt 0.500000 0.937500
vt 0.000000 0.937500
vt 0.500000 0.937500
vt 1.000000 0.625000
vt 1.000000 0.750000
vt 0.500000 0.937500
vt 0.000000 0.937500
vt 1.000000 0.625000
vt 1.000000 0.750000
vt 0.000000 0.000000
vt 0.000000 0.625000
vt 0.500000 0.625000
vt 0.000000 0.000000
vt 0.000000 0.625000
vt 0.500000 0.625000
vt 0.500000 0.000000
vt 0.000000 0.625000
vt 0.000000 0.000000
vt 0.500000 0.000000
vt 0.500000 0.625000
vn 0.0000 -0.0000 -1.0000
vn -0.7660 0.6428 0.0000
vn 0.6428 0.7660 0.0000
vn 0.0000 0.0000 1.0000
vn -0.6428 -0.7660 0.0000
vn 0.7660 -0.6428 -0.0000
vn 1.0000 0.0000 0.0000
vn 0.0000 1.0000 0.0000
vn 0.0000 -1.0000 0.0000
vn -1.0000 0.0000 0.0000
usemtl None
s off
f 4/1/1 9/2/1 15/3/1 14/4/1
f 11/5/2 8/6/2 7/7/2 12/8/2
f 1/9/3 5/10/3 6/11/3 2/12/3
f 10/13/4 12/14/4 7/15/4 3/16/4
f 3/16/5 7/15/5 8/17/5 4/18/5
f 11/19/1 9/2/1 4/1/1 8/20/1
f 5/21/1 1/22/1 9/2/1 11/19/1
f 2/23/4 6/24/4 12/14/4 10/13/4
f 5/25/2 11/26/2 12/27/2 6/28/2
f 1/29/6 2/30/6 10/31/6 9/32/6
f 15/33/6 16/34/6 13/35/6 14/36/6
f 9/37/3 10/38/3 16/39/3 15/40/3
f 3/16/5 4/18/5 14/36/5 13/41/5
f 10/13/4 3/16/4 13/41/4 16/42/4
f 17/43/7 46/44/7 47/45/7 24/46/7
f 118/47/7 55/48/7 56/49/7 22/50/7
f 18/51/8 17/52/8 19/53/8 20/54/8
f 120/55/9 54/56/9 55/57/9 118/58/9
f 24/59/7 47/60/7 48/61/7 114/62/7
f 118/63/9 29/64/9 26/65/9 114/66/9
f 30/67/10 31/68/10 28/69/10 27/70/10
f 32/71/7 25/72/7 26/65/7 29/64/7
f 30/73/9 37/74/9 40/75/9 31/76/9
f 33/77/4 38/78/4 37/79/4 30/80/4
f 116/81/9 27/82/9 28/83/9 120/84/9
f 18/85/4 33/77/4 30/80/4 21/86/4
f 21/87/4 30/88/4 27/89/4 116/90/4
f 20/91/8 34/92/8 33/93/8 18/94/8
f 120/95/1 28/96/1 31/97/1 23/98/1
f 23/99/1 31/100/1 34/101/1 20/102/1
f 22/50/1 32/103/1 29/104/1 118/47/1
f 19/105/1 35/106/1 32/107/1 22/108/1
f 114/62/4 26/109/4 25/110/4 24/59/4
f 17/111/8 36/112/8 35/113/8 19/114/8
f 24/46/4 25/115/4 36/116/4 17/43/4
f 42/117/7 43/118/7 44/119/7 41/120/7
f 38/121/10 39/122/10 40/75/10 37/74/10
f 25/115/4 44/123/4 43/124/4 36/116/4
f 35/106/1 42/125/1 41/126/1 32/107/1
f 34/92/8 39/127/8 38/128/8 33/93/8
f 32/129/9 41/130/9 44/131/9 25/132/9
f 36/112/8 43/133/8 42/134/8 35/113/8
f 31/100/1 40/135/1 39/136/1 34/101/1
f 47/137/4 50/138/4 49/139/4 48/140/4
f 51/141/1 56/142/1 55/57/1 54/56/1
f 46/44/7 58/143/7 64/144/7 47/45/7
f 51/145/9 60/146/9 63/147/9 56/148/9
f 114/149/9 48/150/9 49/151/9 116/152/9
f 22/108/7 56/153/7 53/154/7 19/105/7
f 20/102/10 52/155/10 51/156/10 23/99/10
f 116/90/10 49/157/10 50/158/10 21/87/10
f 21/86/10 50/159/10 45/160/10 18/85/10
f 18/161/8 45/162/8 46/163/8 17/111/8
f 19/164/8 53/165/8 52/166/8 20/91/8
f 23/98/10 51/167/10 54/168/10 120/95/10
f 61/169/1 62/170/1 63/171/1 60/172/1
f 58/173/4 57/174/4 59/175/4 64/176/4
f 52/155/10 61/177/10 60/178/10 51/156/10
f 47/179/9 64/176/9 59/175/9 50/180/9
f 45/162/8 57/181/8 58/182/8 46/163/8
f 56/153/7 63/183/7 62/184/7 53/154/7
f 53/165/8 62/185/8 61/186/8 52/166/8
f 50/159/10 59/187/10 57/188/10 45/160/10
f 65/189/7 73/190/7 96/191/7 95/192/7
f 117/193/7 70/194/7 105/195/7 104/196/7
f 67/197/9 68/198/9 72/199/9 65/200/9
f 119/201/8 115/202/8 66/203/8 117/204/8
f 119/205/8 117/206/8 104/207/8 103/208/8
f 73/209/7 66/210/7 97/211/7 96/212/7
f 117/213/8 66/214/8 74/215/8 77/216/8
f 78/217/10 75/218/10 76/219/10 81/220/10
f 82/221/7 77/216/7 74/215/7 85/222/7
f 78/223/8 81/224/8 89/225/8 86/226/8
f 79/227/4 78/228/4 86/229/4 87/230/4
f 115/231/8 119/232/8 76/233/8 75/234/8
f 67/235/4 69/236/4 78/228/4 79/227/4
f 69/237/4 115/238/4 75/239/4 78/240/4
f 68/241/9 67/242/9 79/243/9 80/244/9
f 119/245/1 71/246/1 81/247/1 76/248/1
f 71/249/1 68/250/1 80/251/1 81/252/1
f 70/194/1 117/193/1 77/253/1 82/254/1
f 72/255/1 70/256/1 82/257/1 83/258/1
f 66/210/4 73/209/4 85/259/4 74/260/4
f 65/261/9 72/262/9 83/263/9 84/264/9
f 73/190/4 65/189/4 84/265/4 85/266/4
f 91/267/7 90/268/7 93/269/7 92/270/7
f 87/271/10 86/226/10 89/225/10 88/272/10
f 85/266/4 84/265/4 92/273/4 93/274/4
f 83/258/1 82/257/1 90/275/1 91/276/1
f 80/244/9 79/243/9 87/277/9 88/278/9
f 82/279/8 85/280/8 93/281/8 90/282/8
f 84/264/9 83/263/9 91/283/9 92/284/9
f 81/252/1 80/251/1 88/285/1 89/286/1
f 96/287/4 97/288/4 98/289/4 99/290/4
f 100/291/1 103/208/1 104/207/1 105/292/1
f 95/192/7 96/191/7 113/293/7 107/294/7
f 100/295/8 105/296/8 112/297/8 109/298/8
f 66/299/8 115/300/8 98/301/8 97/302/8
f 70/256/7 72/255/7 102/303/7 105/304/7
f 68/250/10 71/249/10 100/305/10 101/306/10
f 115/238/10 69/237/10 99/307/10 98/308/10
f 69/236/10 67/235/10 94/309/10 99/310/10
f 67/311/9 65/261/9 95/312/9 94/313/9
f 72/314/9 68/241/9 101/315/9 102/316/9
f 71/246/10 119/245/10 103/317/10 100/318/10
f 110/319/1 109/320/1 112/321/1 111/322/1
f 107/323/4 113/324/4 108/325/4 106/326/4
f 101/306/10 100/305/10 109/327/10 110/328/10
f 96/329/8 99/330/8 108/325/8 113/324/8
f 94/313/9 95/312/9 107/331/9 106/332/9
f 105/304/7 102/303/7 111/333/7 112/334/7
f 102/316/9 101/315/9 110/335/9 111/336/9
f 99/310/10 94/309/10 106/337/10 108/338/10
f 66/339/4 114/340/4 116/341/4 115/202/4
f 115/342/10 116/343/10 120/344/10 119/345/10
f 119/345/1 120/344/1 118/346/1 117/347/1
f 117/348/7 118/349/7 114/340/7 66/339/7
f 120/344/8 116/343/8 114/340/8 118/349/8
