# Blender v2.79 (sub 0) OBJ File: 'yvetal egg.blend'
# www.blender.org
mtllib yveltal_egg.mtl
o block
v 0.201758 0.005000 0.076570
v 0.836401 0.005000 0.076571
v 0.836401 0.005000 0.912233
v 0.201758 0.005000 0.912232
v 0.201758 0.328588 0.076570
v 0.836401 0.328588 0.076571
v 0.836401 0.328588 0.912233
v 0.201758 0.328588 0.912232
vt 0.531250 0.906250
vt 0.531250 0.562500
vt 0.843750 0.562500
vt 0.843750 0.906250
vt 0.500000 0.281250
vt 0.500000 0.316406
vt 0.375000 0.316406
vt 0.375000 0.281250
vt 0.468750 0.000000
vt 0.468750 0.250000
vt 0.906250 0.250000
vt 0.906250 0.000000
vt 0.500000 0.316406
vt 0.500000 0.281250
vt 0.375000 0.281250
vt 0.375000 0.316406
vt 0.906250 0.281250
vt 0.906250 0.531250
vt 0.468750 0.531250
vt 0.468750 0.281250
vt 0.625000 0.687500
vt 0.500000 0.687500
vt 0.500000 0.781250
vt 0.625000 0.781250
vn 0.0000 -1.0000 -0.0000
vn 1.0000 0.0000 0.0000
vn -0.0000 0.0000 1.0000
vn -1.0000 0.0000 -0.0000
vn 0.0000 0.0000 -1.0000
vn 0.0000 1.0000 0.0000
usemtl None
s off
f 4/1/1 1/2/1 2/3/1 3/4/1
f 2/5/2 6/6/2 7/7/2 3/8/2
f 3/9/3 7/10/3 8/11/3 4/12/3
f 5/13/4 1/14/4 4/15/4 8/16/4
f 1/17/5 5/18/5 6/19/5 2/20/5
f 8/21/6 7/22/6 6/23/6 5/24/6
o Cube.003
v 0.149987 0.208514 0.356524
v 0.888172 0.208514 0.356524
v 0.888172 0.208514 0.632279
v 0.149987 0.208514 0.632279
v 0.057714 0.445412 0.356524
v 0.980446 0.445412 0.356524
v 0.980445 0.445412 0.632279
v 0.057714 0.445412 0.632279
v 0.519080 0.270511 0.356524
v 0.519080 0.270511 0.632279
v 0.519080 0.445412 0.356524
v 0.519080 0.445412 0.632279
v 0.043324 0.377536 0.264606
v 0.994835 0.377536 0.264605
v 0.994835 0.377536 0.724197
v 0.043324 0.377536 0.724197
v -0.008050 0.611175 0.264606
v 1.046210 0.611175 0.264606
v 1.046210 0.611175 0.724197
v -0.008050 0.611175 0.724197
v 0.519080 0.501530 0.264606
v 0.519080 0.501530 0.724197
v 0.519080 0.611175 0.264606
v 0.519080 0.611175 0.724197
v 0.106625 1.125386 0.226574
v 0.931534 1.125386 0.226574
v 0.931534 1.125386 0.762229
v 0.106625 1.125386 0.762229
v 0.106626 1.462849 0.226574
v 0.931534 1.462849 0.226574
v 0.931534 1.462849 0.762229
v 0.106625 1.462849 0.762229
v -0.015638 0.571232 0.126139
v 1.053797 0.571232 0.126139
v 1.053797 0.571232 0.862664
v -0.015638 0.571232 0.862664
v -0.015638 1.211042 0.126139
v 1.053797 1.211042 0.126139
v 1.053797 1.211042 0.862664
v -0.015638 1.211042 0.862664
v 0.637861 1.390963 0.278657
v 0.585740 1.665561 0.117999
v 0.152030 1.352674 0.370827
v 0.099909 1.627273 0.210170
v 0.613792 1.286873 0.108553
v 0.561672 1.561472 -0.052104
v 0.127962 1.248585 0.200724
v 0.075841 1.523184 0.040067
v 0.852334 1.244612 0.294524
v 0.953815 1.469840 0.142344
v 0.437582 1.404876 0.255140
v 0.539064 1.630104 0.102960
v 0.835486 1.171750 0.175452
v 0.936967 1.396978 0.023272
v 0.420735 1.332014 0.136067
v 0.522216 1.557242 -0.016113
v 0.637861 1.390963 0.710146
v 0.585740 1.665561 0.870804
v 0.152030 1.352674 0.617976
v 0.099909 1.627273 0.778633
v 0.613793 1.286873 0.880249
v 0.561672 1.561472 1.040907
v 0.127962 1.248585 0.788079
v 0.075841 1.523184 0.948737
v 0.852334 1.244612 0.694279
v 0.953815 1.469840 0.846459
v 0.437582 1.404876 0.733663
v 0.539064 1.630104 0.885843
v 0.835486 1.171750 0.813351
v 0.936967 1.396978 0.965531
v 0.420735 1.332014 0.852736
v 0.522216 1.557242 1.004915
v 0.692486 1.406083 0.618396
v 0.636504 1.723570 0.618396
v 0.204044 1.319958 0.618396
v 0.148063 1.637445 0.618396
v 0.692486 1.406083 0.370407
v 0.636504 1.723570 0.370407
v 0.204044 1.319958 0.370407
v 0.148063 1.637445 0.370407
v 0.914390 1.275392 0.594837
v 1.013626 1.548040 0.594837
v 0.494931 1.428063 0.594837
v 0.594167 1.700711 0.594837
v 0.914390 1.275392 0.393966
v 1.013626 1.548040 0.393966
v 0.494931 1.428063 0.393966
v 0.594167 1.700711 0.393966
v 0.184504 1.008452 -0.064400
v 0.853655 1.008452 -0.064399
v 0.853655 1.008452 1.053203
v 0.184504 1.008452 1.053203
v 0.267708 0.604834 0.015660
v 0.770451 0.604834 0.015660
v 0.770451 0.604834 0.973143
v 0.267708 0.604834 0.973143
v 0.267708 1.388229 0.015660
v 0.770451 1.388229 0.015660
v 0.770451 1.388229 0.973143
v 0.267708 1.388229 0.973143
v 0.184504 0.316712 -0.064400
v 0.853655 0.316712 -0.064400
v 0.853655 0.316712 1.053203
v 0.184504 0.316712 1.053203
vt 0.468750 0.250000
vt 0.468750 0.218750
vt 0.468750 0.218750
vt 0.468750 0.250000
vt 0.468750 0.281250
vt 0.468750 0.281250
vt 0.468750 0.281250
vt 0.468750 0.281250
vt 0.406250 0.281250
vt 0.406250 0.218750
vt 0.468750 0.281250
vt 0.468750 0.218750
vt 0.468750 0.281250
vt 0.468750 0.218750
vt 0.468750 0.281250
vt 0.468750 0.250000
vt 0.437500 0.250000
vt 0.437500 0.281250
vt 0.468750 0.312500
vt 0.437500 0.312500
vt 0.437500 0.312500
vt 0.468750 0.312500
vt 0.437500 0.031250
vt 0.437500 0.281250
vt 0.062500 0.281250
vt 0.062500 0.031250
vt 0.437500 0.312500
vt 0.437500 0.250000
vt 0.468750 0.312500
vt 0.468750 0.250000
vt 0.500000 0.406250
vt 0.500000 0.406250
vt 0.437500 0.406250
vt 0.437500 0.406250
vt 0.500000 0.468750
vt 0.437500 0.468750
vt 0.437500 0.468750
vt 0.500000 0.468750
vt 0.500000 0.281250
vt 0.500000 0.281250
vt 0.406250 0.281250
vt 0.406250 0.281250
vt 0.500000 0.437500
vt 0.406250 0.437500
vt 0.406250 0.437500
vt 0.500000 0.437500
vt 0.500000 0.312500
vt 0.500000 0.937500
vt 0.000000 0.937500
vt 0.000000 0.312500
vt 0.375000 0.625000
vt 0.375000 0.687500
vt 0.468750 0.687500
vt 0.437500 0.625000
vt 0.468750 0.656250
vt 0.468750 0.593750
vt 0.375000 0.656250
vt 0.375000 0.625000
vt 0.343750 0.593750
vt 0.312500 0.656250
vt 0.375000 0.687500
vt 0.406250 0.625000
vt 0.375000 0.656250
vt 0.406250 0.625000
vt 0.312500 0.625000
vt 0.343750 0.593750
vt 0.375000 0.625000
vt 0.437500 0.625000
vt 0.468750 0.687500
vt 0.375000 0.687500
vt 0.468750 0.593750
vt 0.468750 0.656250
vt 0.375000 0.625000
vt 0.375000 0.656250
vt 0.343750 0.593750
vt 0.406250 0.625000
vt 0.375000 0.687500
vt 0.312500 0.656250
vt 0.406250 0.625000
vt 0.375000 0.656250
vt 0.343750 0.593750
vt 0.312500 0.625000
vt 0.375000 0.593750
vt 0.375000 0.656250
vt 0.468750 0.656250
vt 0.468750 0.593750
vt 0.468750 0.656250
vt 0.468750 0.593750
vt 0.375000 0.656250
vt 0.375000 0.593750
vt 0.343750 0.593750
vt 0.312500 0.625000
vt 0.406250 0.656250
vt 0.406250 0.593750
vt 0.406250 0.656250
vt 0.406250 0.593750
vt 0.312500 0.625000
vt 0.343750 0.593750
vt 0.500000 0.375000
vt 0.375000 0.375000
vt 0.375000 0.375000
vt 0.500000 0.375000
vt 0.031250 0.625000
vt 0.031250 0.062500
vt 0.468750 0.062500
vt 0.468750 0.625000
vt 0.500000 0.316406
vt 0.375000 0.316406
vt 0.500000 0.316406
vt 0.375000 0.316406
vt 0.500000 0.312500
vt 0.500000 0.312500
vt 0.406250 0.312500
vt 0.406250 0.312500
vt 0.500000 0.406250
vt 0.406250 0.406250
vt 0.406250 0.406250
vt 0.500000 0.406250
vt 0.437500 0.281250
vt 0.437500 0.968750
vt 0.062500 0.968750
vt 0.062500 0.281250
vt 0.062500 0.281250
vt 0.062500 0.968750
vt 0.437500 0.968750
vt 0.437500 0.281250
vt 0.468750 0.625000
vt 0.468750 0.062500
vt 0.031250 0.062500
vt 0.031250 0.625000
vt 0.500000 0.718750
vt 0.500000 0.625000
vt 0.625000 0.625000
vt 0.625000 0.718750
vn -0.1657 -0.9862 0.0000
vn 0.0000 1.0000 0.0000
vn -0.0000 0.0000 -1.0000
vn 0.9318 -0.3629 0.0000
vn 0.0000 0.0000 1.0000
vn -0.9318 -0.3629 -0.0000
vn 0.1657 -0.9862 -0.0000
vn -0.2522 -0.9677 0.0000
vn 0.9767 -0.2148 0.0000
vn -0.9767 -0.2148 -0.0000
vn 0.2522 -0.9677 0.0000
vn 0.0000 -1.0000 0.0000
vn 1.0000 -0.0000 0.0000
vn -1.0000 0.0000 -0.0000
vn 0.1198 0.5182 0.8468
vn -0.9795 -0.0772 0.1858
vn -0.1198 -0.5182 -0.8468
vn 0.9795 0.0772 -0.1858
vn 0.1617 -0.8518 0.4983
vn -0.1617 0.8518 -0.4983
vn -0.9291 0.3590 -0.0882
vn 0.9291 -0.3590 0.0882
vn -0.3498 -0.7763 0.5245
vn 0.3498 0.7763 -0.5245
vn 0.1198 0.5182 -0.8468
vn -0.9795 -0.0772 -0.1858
vn -0.1198 -0.5182 0.8468
vn 0.9795 0.0772 0.1858
vn 0.1617 -0.8518 -0.4983
vn -0.1617 0.8518 0.4983
vn -0.9291 0.3590 0.0882
vn 0.9291 -0.3590 -0.0882
vn -0.3498 -0.7763 -0.5245
vn 0.3498 0.7763 0.5245
vn -0.9848 -0.1736 0.0000
vn 0.9848 0.1736 -0.0000
vn 0.1736 -0.9848 -0.0000
vn -0.1736 0.9848 -0.0000
vn -0.9397 0.3420 0.0000
vn 0.9397 -0.3420 -0.0000
vn -0.3420 -0.9397 0.0000
vn 0.3420 0.9397 -0.0000
usemtl None
s off
f 17/25/7 10/26/7 11/27/7 18/28/7
f 19/29/8 20/30/8 15/31/8 14/32/8
f 17/25/9 19/29/9 14/32/9 10/26/9
f 10/26/10 14/32/10 15/33/10 11/34/10
f 18/28/11 20/30/11 16/35/11 12/36/11
f 13/37/12 9/38/12 12/36/12 16/35/12
f 11/27/11 15/31/11 20/30/11 18/28/11
f 9/38/9 13/37/9 19/29/9 17/25/9
f 13/37/8 16/35/8 20/30/8 19/29/8
f 9/38/13 17/25/13 18/28/13 12/36/13
f 29/39/14 22/40/14 23/41/14 30/42/14
f 31/43/8 32/44/8 27/45/8 26/46/8
f 29/39/9 31/43/9 26/46/9 22/40/9
f 22/47/15 26/48/15 27/49/15 23/50/15
f 30/42/11 32/44/11 28/51/11 24/52/11
f 25/53/16 21/54/16 24/52/16 28/51/16
f 23/41/11 27/45/11 32/44/11 30/42/11
f 21/54/9 25/53/9 31/43/9 29/39/9
f 25/53/8 28/51/8 32/44/8 31/43/8
f 21/54/17 29/39/17 30/42/17 24/52/17
f 33/55/18 34/56/18 35/57/18 36/58/18
f 37/59/8 40/60/8 39/61/8 38/62/8
f 33/55/9 37/59/9 38/62/9 34/56/9
f 34/56/19 38/62/19 39/61/19 35/57/19
f 35/57/11 39/61/11 40/60/11 36/58/11
f 37/59/20 33/55/20 36/58/20 40/60/20
f 41/63/18 42/64/18 43/65/18 44/66/18
f 45/67/8 48/68/8 47/69/8 46/70/8
f 41/63/9 45/67/9 46/70/9 42/64/9
f 42/71/19 46/72/19 47/73/19 43/74/19
f 43/65/11 47/69/11 48/68/11 44/66/11
f 45/67/20 41/63/20 44/66/20 48/68/20
f 49/75/21 50/76/21 52/77/21 51/78/21
f 51/78/22 52/77/22 56/79/22 55/80/22
f 55/80/23 56/79/23 54/81/23 53/82/23
f 53/82/24 54/81/24 50/76/24 49/75/24
f 51/78/25 55/80/25 53/82/25 49/75/25
f 56/79/26 52/77/26 50/76/26 54/81/26
f 57/83/21 58/84/21 60/85/21 59/86/21
f 59/86/27 60/85/27 64/87/27 63/88/27
f 63/88/23 64/87/23 62/89/23 61/90/23
f 61/90/28 62/89/28 58/84/28 57/83/28
f 59/86/29 63/88/29 61/90/29 57/83/29
f 64/87/30 60/85/30 58/84/30 62/89/30
f 65/91/31 67/92/31 68/93/31 66/94/31
f 67/92/32 71/95/32 72/96/32 68/93/32
f 71/95/33 69/97/33 70/98/33 72/96/33
f 69/97/34 65/91/34 66/94/34 70/98/34
f 67/92/35 65/91/35 69/97/35 71/95/35
f 72/96/36 70/98/36 66/94/36 68/93/36
f 73/99/31 75/100/31 76/101/31 74/102/31
f 75/100/37 79/103/37 80/104/37 76/101/37
f 79/103/33 77/105/33 78/106/33 80/104/33
f 77/105/38 73/99/38 74/102/38 78/106/38
f 75/100/39 73/99/39 77/105/39 79/103/39
f 80/104/40 78/106/40 74/102/40 76/101/40
f 81/107/11 82/108/11 84/109/11 83/110/11
f 83/110/41 84/109/41 88/111/41 87/112/41
f 87/112/9 88/111/9 86/113/9 85/114/9
f 85/114/42 86/113/42 82/108/42 81/107/42
f 83/110/43 87/112/43 85/114/43 81/107/43
f 88/111/44 84/109/44 82/108/44 86/113/44
f 89/115/11 90/116/11 92/117/11 91/118/11
f 91/118/45 92/117/45 96/119/45 95/120/45
f 95/120/9 96/119/9 94/121/9 93/122/9
f 93/122/46 94/121/46 90/116/46 89/115/46
f 91/118/47 95/120/47 93/122/47 89/115/47
f 96/119/48 92/117/48 90/116/48 94/121/48
f 97/123/8 100/124/8 99/125/8 98/126/8
f 109/127/9 97/128/9 98/129/9 110/130/9
f 110/131/19 98/126/19 99/125/19 111/132/19
f 97/123/20 109/133/20 112/134/20 100/124/20
f 101/135/18 102/136/18 103/137/18 104/138/18
f 105/139/8 108/140/8 107/141/8 106/142/8
f 101/143/9 105/144/9 106/145/9 102/146/9
f 102/136/19 106/142/19 107/141/19 103/137/19
f 103/147/11 107/148/11 108/149/11 104/150/11
f 105/139/20 101/135/20 104/138/20 108/140/20
f 111/151/11 99/152/11 100/153/11 112/154/11
f 112/155/18 109/156/18 110/157/18 111/158/18
